<svg width="16" height="16" viewBox="0 0 16 16" fill="none" xmlns="http://www.w3.org/2000/svg">
<path d="M4.5 0C4.63261 0 4.75979 0.0526784 4.85355 0.146447C4.94732 0.240215 5 0.367392 5 0.5V2H11V0.5C11 0.367392 11.0527 0.240215 11.1464 0.146447C11.2402 0.0526784 11.3674 0 11.5 0C11.6326 0 11.7598 0.0526784 11.8536 0.146447C11.9473 0.240215 12 0.367392 12 0.5V2H13.8333C14.4773 2 15 2.52267 15 3.16667V13.8333C15 14.1428 14.8771 14.4395 14.6583 14.6583C14.4395 14.8771 14.1428 15 13.8333 15H2.16667C1.85725 15 1.5605 14.8771 1.34171 14.6583C1.12292 14.4395 1 14.1428 1 13.8333V3.16667C1 2.52267 1.52267 2 2.16667 2H4V0.5C4 0.367392 4.05268 0.240215 4.14645 0.146447C4.24021 0.0526784 4.36739 0 4.5 0ZM14 6.33333H2V13.8333C2 13.9253 2.07467 14 2.16667 14H13.8333C13.8775 14 13.9199 13.9824 13.9512 13.9512C13.9824 13.9199 14 13.8775 14 13.8333V6.33333ZM2.16667 3C2.12246 3 2.08007 3.01756 2.04882 3.04882C2.01756 3.08007 2 3.12246 2 3.16667V5.33333H14V3.16667C14 3.12246 13.9824 3.08007 13.9512 3.04882C13.9199 3.01756 13.8775 3 13.8333 3H2.16667Z" fill="black"/>
</svg>
