<svg width="16" height="16" viewBox="0 0 16 16" fill="none" xmlns="http://www.w3.org/2000/svg">
<path d="M9.50984 1.08461C9.50984 3.44794 10.7558 4.63594 11.8292 5.76528C12.8558 6.84528 13.8332 7.87394 13.8332 9.83328C13.8332 13.0413 11.3312 15.3333 8.12317 15.3333C4.9145 15.3333 2.1665 13.0526 2.1665 9.83328C2.1665 8.47394 2.80784 7.15928 3.83917 6.56728C4.0425 6.45061 4.28717 6.57194 4.3745 6.78994C5.04184 8.45594 5.8645 8.42661 6.29117 7.99994C6.54984 7.74194 6.6045 7.25594 6.2885 6.62528C4.68517 3.41728 7.5305 1.10594 9.0885 0.72261C9.3125 0.667943 9.4985 0.85461 9.50984 1.08461ZM8.12317 14.3333C10.8292 14.3333 12.8332 12.4399 12.8332 9.83328C12.8332 8.27528 12.1045 7.50728 11.0478 6.39461L11.0338 6.37928C10.0738 5.36794 8.94117 4.14528 8.60117 2.00794C8.09777 2.30384 7.66341 2.70388 7.32717 3.18128C6.8025 3.94394 6.5625 4.93661 7.18317 6.17794C7.58517 6.98128 7.70117 8.00461 6.9985 8.70728C6.5605 9.14528 5.82384 9.44061 5.02784 9.09794C4.5265 8.88194 4.12584 8.46128 3.8025 7.90461C3.4245 8.37528 3.1665 9.06461 3.1665 9.83328C3.1665 12.3979 5.3585 14.3333 8.12317 14.3333Z" fill="black"/>
</svg>
