<svg width="16" height="16" viewBox="0 0 16 16" fill="none" xmlns="http://www.w3.org/2000/svg">
<g clip-path="url(#clip0_108_19)">
<path d="M7.69133 0C6.68129 0 5.68114 0.198942 4.74798 0.585467C3.81483 0.971993 2.96694 1.53853 2.25274 2.25274C0.810334 3.69514 0 5.65146 0 7.69133C0 11.0909 2.20741 13.9751 5.26087 14.9981C5.64543 15.0596 5.7685 14.8212 5.7685 14.6135V13.3137C3.638 13.7752 3.18421 12.283 3.18421 12.283C2.83041 11.3909 2.33047 11.1524 2.33047 11.1524C1.63056 10.6756 2.38431 10.6909 2.38431 10.6909C3.15344 10.7448 3.56108 11.4832 3.56108 11.4832C4.23023 12.6522 5.36085 12.3061 5.79926 12.1215C5.86848 11.6216 6.06846 11.2832 6.28381 11.0909C4.57634 10.8986 2.78426 10.2372 2.78426 7.30676C2.78426 6.45302 3.07653 5.7685 3.57647 5.22241C3.49955 5.03013 3.23036 4.23023 3.65338 3.1919C3.65338 3.1919 4.29945 2.98423 5.7685 3.97642C6.37611 3.80721 7.03756 3.7226 7.69133 3.7226C8.34509 3.7226 9.00654 3.80721 9.61416 3.97642C11.0832 2.98423 11.7293 3.1919 11.7293 3.1919C12.1523 4.23023 11.8831 5.03013 11.8062 5.22241C12.3061 5.7685 12.5984 6.45302 12.5984 7.30676C12.5984 10.2448 10.7986 10.8909 9.08346 11.0832C9.36034 11.3216 9.61416 11.7908 9.61416 12.5061V14.6135C9.61416 14.8212 9.73722 15.0673 10.1295 14.9981C13.1829 13.9674 15.3827 11.0909 15.3827 7.69133C15.3827 6.68129 15.1837 5.68114 14.7972 4.74798C14.4107 3.81483 13.8441 2.96694 13.1299 2.25274C12.4157 1.53853 11.5678 0.971993 10.6347 0.585467C9.70152 0.198942 8.70137 0 7.69133 0Z" fill="#1677FF"/>
</g>
<defs>
<clipPath id="clip0_108_19">
<rect width="16" height="16" fill="white"/>
</clipPath>
</defs>
</svg>
