<svg width="16" height="16" viewBox="0 0 16 16" fill="none" xmlns="http://www.w3.org/2000/svg">
<path d="M8.00016 1.33337C7.12468 1.33337 6.25778 1.50581 5.44894 1.84084C4.6401 2.17588 3.90517 2.66694 3.28612 3.286C2.03588 4.53624 1.3335 6.23193 1.3335 8.00004C1.3335 10.9467 3.24683 13.4467 5.8935 14.3334C6.22683 14.3867 6.3335 14.18 6.3335 14V12.8734C4.48683 13.2734 4.0935 11.98 4.0935 11.98C3.78683 11.2067 3.3535 11 3.3535 11C2.74683 10.5867 3.40016 10.6 3.40016 10.6C4.06683 10.6467 4.42016 11.2867 4.42016 11.2867C5.00016 12.3 5.98016 12 6.36016 11.84C6.42016 11.4067 6.5935 11.1134 6.78016 10.9467C5.30016 10.78 3.74683 10.2067 3.74683 7.66671C3.74683 6.92671 4.00016 6.33337 4.4335 5.86004C4.36683 5.69337 4.1335 5.00004 4.50016 4.10004C4.50016 4.10004 5.06016 3.92004 6.3335 4.78004C6.86016 4.63337 7.4335 4.56004 8.00016 4.56004C8.56683 4.56004 9.14016 4.63337 9.66683 4.78004C10.9402 3.92004 11.5002 4.10004 11.5002 4.10004C11.8668 5.00004 11.6335 5.69337 11.5668 5.86004C12.0002 6.33337 12.2535 6.92671 12.2535 7.66671C12.2535 10.2134 10.6935 10.7734 9.20683 10.94C9.44683 11.1467 9.66683 11.5534 9.66683 12.1734V14C9.66683 14.18 9.7735 14.3934 10.1135 14.3334C12.7602 13.44 14.6668 10.9467 14.6668 8.00004C14.6668 7.12456 14.4944 6.25765 14.1594 5.44882C13.8243 4.63998 13.3333 3.90505 12.7142 3.286C12.0952 2.66694 11.3602 2.17588 10.5514 1.84084C9.74255 1.50581 8.87564 1.33337 8.00016 1.33337Z" fill="#1677FF"/>
</svg>
