<svg width="24" height="24" viewBox="0 0 24 24" fill="none" xmlns="http://www.w3.org/2000/svg">
<g clip-path="url(#clip0_135_2)">
<path d="M7.34583 19C6.97361 19 6.65611 18.8689 6.39333 18.6067C6.13111 18.3444 6 18.0269 6 17.6542V10.3458C6 9.97361 6.13111 9.65611 6.39333 9.39333C6.65556 9.13111 6.97306 9 7.34583 9H8.5V7.33333C8.5 6.405 8.82333 5.61722 9.47 4.97C10.1167 4.32278 10.9044 3.99945 11.8333 4C12.7622 4.00056 13.55 4.32389 14.1967 4.97C14.8433 5.61611 15.1667 6.40389 15.1667 7.33333V9H16.3208C16.6931 9 17.0106 9.13111 17.2733 9.39333C17.5356 9.65556 17.6667 9.97306 17.6667 10.3458V17.6542C17.6667 18.0264 17.5356 18.3439 17.2733 18.6067C17.0111 18.8689 16.6936 19 16.3208 19H7.34583ZM7.34583 18.1667H16.3208C16.4703 18.1667 16.5931 18.1186 16.6892 18.0225C16.7853 17.9264 16.8333 17.8036 16.8333 17.6542V10.3458C16.8333 10.1964 16.7853 10.0736 16.6892 9.9775C16.5931 9.88139 16.4703 9.83333 16.3208 9.83333H7.34583C7.19639 9.83333 7.07361 9.88139 6.9775 9.9775C6.88139 10.0736 6.83333 10.1964 6.83333 10.3458V17.6542C6.83333 17.8036 6.88139 17.9264 6.9775 18.0225C7.07361 18.1186 7.19639 18.1667 7.34583 18.1667ZM11.8333 15.25C12.185 15.25 12.4811 15.1294 12.7217 14.8883C12.9622 14.6472 13.0828 14.3511 13.0833 14C13.0839 13.6489 12.9633 13.3528 12.7217 13.1117C12.48 12.8706 12.1839 12.75 11.8333 12.75C11.4828 12.75 11.1867 12.8706 10.945 13.1117C10.7033 13.3528 10.5828 13.6489 10.5833 14C10.5839 14.3511 10.7044 14.6472 10.945 14.8883C11.1856 15.1294 11.4817 15.25 11.8333 15.25ZM9.33333 9H14.3333V7.33333C14.3333 6.63889 14.0903 6.04861 13.6042 5.5625C13.1181 5.07639 12.5278 4.83333 11.8333 4.83333C11.1389 4.83333 10.5486 5.07639 10.0625 5.5625C9.57639 6.04861 9.33333 6.63889 9.33333 7.33333V9Z" fill="black"/>
<circle cx="12" cy="12" r="11.25" stroke="black" stroke-width="1.5"/>
</g>
<defs>
<clipPath id="clip0_135_2">
<rect width="24" height="24" rx="12" fill="white"/>
</clipPath>
</defs>
</svg>
