<svg width="16" height="16" viewBox="0 0 16 16" fill="none" xmlns="http://www.w3.org/2000/svg">
<g clip-path="url(#clip0_147_4)">
<path d="M8.08 11.22C8.08 11.308 8.148 11.38 8.23 11.38H11.93C12.012 11.38 12.08 11.308 12.08 11.22V10.26C12.08 10.172 12.012 10.1 11.93 10.1H8.23C8.148 10.1 8.08 10.172 8.08 10.26V11.22ZM4.182 11.342L8.022 8.122C8.098 8.058 8.098 7.94 8.022 7.876L4.182 4.658C4.15882 4.63829 4.13047 4.62564 4.10031 4.62156C4.07016 4.61748 4.03947 4.62214 4.01188 4.63499C3.98429 4.64783 3.96097 4.66832 3.94469 4.69403C3.9284 4.71973 3.91983 4.74957 3.92 4.78V6.034C3.92 6.082 3.94 6.126 3.978 6.156L6.174 8L3.978 9.844C3.96012 9.85896 3.94569 9.87761 3.93568 9.89867C3.92567 9.91972 3.92032 9.94269 3.92 9.966V11.22C3.92 11.356 4.078 11.43 4.182 11.342ZM15.36 0H0.64H0V0.64V16H0.64H15.36H16V15.36V0.64V0H15.36ZM15 15H1V1H15V15Z" fill="black"/>
</g>
<defs>
<clipPath id="clip0_147_4">
<rect width="16" height="16" fill="white"/>
</clipPath>
</defs>
</svg>
