<svg width="16" height="16" viewBox="0 0 16 16" fill="none" xmlns="http://www.w3.org/2000/svg">
<path d="M13.0556 1.5H2.94444C2.56135 1.5 2.19395 1.65218 1.92307 1.92307C1.65218 2.19395 1.5 2.56135 1.5 2.94444V13.0556C1.5 13.4386 1.65218 13.806 1.92307 14.0769C2.19395 14.3478 2.56135 14.5 2.94444 14.5H13.0556C13.4386 14.5 13.806 14.3478 14.0769 14.0769C14.3478 13.806 14.5 13.4386 14.5 13.0556V2.94444C14.5 2.56135 14.3478 2.19395 14.0769 1.92307C13.806 1.65218 13.4386 1.5 13.0556 1.5ZM13.4167 13.4167H2.58333V2.58333H13.4167V13.4167ZM5.68945 11.6111H4.52995V8H5.68945V11.6111ZM8.54167 11.6111H7.45833V4.38889H8.54167V11.6111ZM11.4531 11.6111H10.3867V6.55556H11.4531V11.6111Z" fill="black"/>
</svg>
