<svg width="147" height="159" viewBox="0 0 147 159" fill="none" xmlns="http://www.w3.org/2000/svg">
<g filter="url(#filter0_d_69_7)">
<path d="M128.5 102.618V55.882C128.5 52.4189 127.209 49.0801 124.88 46.5176C123.965 45.5113 122.907 44.6445 121.741 43.9447L82.3002 20.2801C79.8135 18.7881 76.9682 18 74.0683 18H72.8084C69.9864 18 67.2146 18.7464 64.7742 20.1634L24.7081 43.4275C22.9265 44.4621 21.4057 45.8914 20.2629 47.6056C18.7874 49.8189 18 52.4195 18 55.0795V103.876C18 106.556 18.8492 109.168 20.4258 111.336C21.4638 112.763 22.7883 113.958 24.3145 114.844L64.7742 138.337C67.2146 139.754 69.9864 140.5 72.8084 140.5H74.0683C76.9682 140.5 79.8135 139.712 82.3002 138.22L121.741 114.555C122.907 113.856 123.965 112.989 124.88 111.982C127.209 109.42 128.5 106.081 128.5 102.618Z" fill="#F7DF1E"/>
<path d="M128.5 102.618V55.882C128.5 52.4189 127.209 49.0801 124.88 46.5176C123.965 45.5113 122.907 44.6445 121.741 43.9447L82.3002 20.2801C79.8135 18.7881 76.9682 18 74.0683 18H72.8084C69.9864 18 67.2146 18.7464 64.7742 20.1634L24.7081 43.4275C22.9265 44.4621 21.4057 45.8914 20.2629 47.6056C18.7874 49.8189 18 52.4195 18 55.0795V103.876C18 106.556 18.8492 109.168 20.4258 111.336C21.4638 112.763 22.7883 113.958 24.3145 114.844L64.7742 138.337C67.2146 139.754 69.9864 140.5 72.8084 140.5H74.0683C76.9682 140.5 79.8135 139.712 82.3002 138.22L121.741 114.555C122.907 113.856 123.965 112.989 124.88 111.982C127.209 109.42 128.5 106.081 128.5 102.618Z" stroke="#F7DF1E" stroke-width="4"/>
</g>
<path d="M68.3075 97.3087V76.6875H74.0062V97.3087C74.0062 100.755 73.1837 103.634 71.5388 105.945C69.9329 108.256 66.7408 109.411 61.9625 109.411C60.3175 109.411 58.7313 109.215 57.2037 108.824L56.44 108.53L57.3213 103.536L58.32 103.771C59.2208 104.006 60.2196 104.124 61.3162 104.124C64.2146 104.124 66.0946 103.458 66.9562 102.126C67.8571 100.755 68.3075 99.1496 68.3075 97.3087ZM96.7462 82.2688C95.4928 81.9554 94.1808 81.7987 92.8099 81.7987C90.8124 81.7987 89.2458 82.1512 88.1099 82.8563C86.9741 83.5613 86.4062 84.5208 86.4062 85.735C86.4062 86.7533 86.9153 87.5563 87.9337 88.1438C88.9912 88.7313 90.6362 89.3775 92.8687 90.0825C95.1403 90.7875 97.0008 91.4729 98.4499 92.1388C99.9383 92.8046 101.211 93.7838 102.269 95.0763C103.326 96.3688 103.855 98.0138 103.855 100.011C103.855 101.656 103.405 103.203 102.504 104.652C101.603 106.062 100.134 107.238 98.0974 108.177C96.0999 109.078 93.5345 109.529 90.4012 109.529C88.5603 109.529 86.8762 109.352 85.3487 109C83.8212 108.608 82.0391 108.021 80.0024 107.238L79.2387 106.885L81.1774 101.656L82.0587 102.009C85.6228 103.34 88.5603 104.006 90.8712 104.006C92.9862 104.006 94.6899 103.654 95.9824 102.949C97.2749 102.205 97.9212 101.225 97.9212 100.011C97.9603 98.8363 97.4512 97.955 96.3937 97.3675C95.3362 96.7408 93.6324 96.075 91.2824 95.37C89.0499 94.665 87.2091 93.9796 85.7599 93.3138C84.3108 92.6479 83.077 91.6883 82.0587 90.435C81.0403 89.1425 80.5312 87.4975 80.5312 85.5C80.5312 83.7375 81.0208 82.1708 81.9999 80.8C82.9791 79.4292 84.3891 78.3521 86.2299 77.5688C88.0708 76.7854 90.2053 76.3938 92.6337 76.3938C94.7095 76.3938 96.472 76.57 97.9212 76.9225C99.3703 77.2358 100.78 77.6275 102.151 78.0975L102.797 78.3325L100.917 83.5613C99.4291 82.9738 98.0387 82.5429 96.7462 82.2688Z" fill="#323330"/>
<defs>
<filter id="filter0_d_69_7" x="0" y="0" width="146.5" height="158.5" filterUnits="userSpaceOnUse" color-interpolation-filters="sRGB">
<feFlood flood-opacity="0" result="BackgroundImageFix"/>
<feColorMatrix in="SourceAlpha" type="matrix" values="0 0 0 0 0 0 0 0 0 0 0 0 0 0 0 0 0 0 127 0" result="hardAlpha"/>
<feOffset/>
<feGaussianBlur stdDeviation="8"/>
<feComposite in2="hardAlpha" operator="out"/>
<feColorMatrix type="matrix" values="0 0 0 0 0.968627 0 0 0 0 0.87451 0 0 0 0 0.117647 0 0 0 1 0"/>
<feBlend mode="normal" in2="BackgroundImageFix" result="effect1_dropShadow_69_7"/>
<feBlend mode="normal" in="SourceGraphic" in2="effect1_dropShadow_69_7" result="shape"/>
</filter>
</defs>
</svg>
