<svg width="16" height="16" viewBox="0 0 16 16" fill="none" xmlns="http://www.w3.org/2000/svg">
<path d="M0 3.16667C0 2.52267 0.522667 2 1.16667 2H14.8333C15.4773 2 16 2.52267 16 3.16667V12.8333C16 13.1428 15.8771 13.4395 15.6583 13.6583C15.4395 13.8771 15.1428 14 14.8333 14H1.16667C0.857247 14 0.560501 13.8771 0.341709 13.6583C0.122916 13.4395 0 13.1428 0 12.8333L0 3.16667ZM1.16667 3C1.12246 3 1.08007 3.01756 1.04882 3.04882C1.01756 3.08007 1 3.12246 1 3.16667V12.8333C1 12.9253 1.07467 13 1.16667 13H14.8333C14.8775 13 14.9199 12.9824 14.9512 12.9512C14.9824 12.9199 15 12.8775 15 12.8333V3.16667C15 3.12246 14.9824 3.08007 14.9512 3.04882C14.9199 3.01756 14.8775 3 14.8333 3H1.16667Z" fill="black"/>
<path d="M6 10.3893V5.61061C6.0001 5.55082 6.01628 5.49216 6.04684 5.44077C6.0774 5.38938 6.12123 5.34716 6.17372 5.31853C6.2262 5.2899 6.28543 5.27592 6.34518 5.27804C6.40493 5.28017 6.46301 5.29832 6.51333 5.33061L10.2307 7.71928C10.2777 7.74944 10.3165 7.79095 10.3433 7.83999C10.3701 7.88904 10.3842 7.94404 10.3842 7.99994C10.3842 8.05585 10.3701 8.11085 10.3433 8.1599C10.3165 8.20894 10.2777 8.25045 10.2307 8.28061L6.51333 10.6699C6.46301 10.7022 6.40493 10.7204 6.34518 10.7225C6.28543 10.7246 6.2262 10.7107 6.17372 10.682C6.12123 10.6534 6.0774 10.6112 6.04684 10.5598C6.01628 10.5084 6.0001 10.4497 6 10.3899V10.3893Z" fill="black"/>
</svg>
