<svg width="16" height="16" viewBox="0 0 16 16" fill="none" xmlns="http://www.w3.org/2000/svg">
<path d="M8 10.25C8.79538 10.2491 9.55792 9.93275 10.1203 9.37033C10.6827 8.80792 10.9991 8.04538 11 7.25V3.5C11 2.70435 10.6839 1.94129 10.1213 1.37868C9.55871 0.81607 8.79565 0.5 8 0.5C7.20435 0.5 6.44129 0.81607 5.87868 1.37868C5.31607 1.94129 5 2.70435 5 3.5V7.25C5.00089 8.04538 5.31725 8.80792 5.87967 9.37033C6.44208 9.93275 7.20462 10.2491 8 10.25ZM6 3.5C6 2.96957 6.21071 2.46086 6.58579 2.08579C6.96086 1.71071 7.46957 1.5 8 1.5C8.53043 1.5 9.03914 1.71071 9.41421 2.08579C9.78929 2.46086 10 2.96957 10 3.5V7.25C10 7.78043 9.78929 8.28914 9.41421 8.66421C9.03914 9.03929 8.53043 9.25 8 9.25C7.46957 9.25 6.96086 9.03929 6.58579 8.66421C6.21071 8.28914 6 7.78043 6 7.25V3.5Z" fill="black"/>
<path d="M12.5 5.5V7.25C12.5 9.73125 10.4813 11.75 8 11.75C5.51875 11.75 3.5 9.73125 3.5 7.25V5.5H2.5V7.25C2.5 10.1142 4.70075 12.4736 7.5 12.727V15.5H8.5V12.727C11.2992 12.4736 13.5 10.1142 13.5 7.25V5.5H12.5Z" fill="black"/>
</svg>
