<svg width="24" height="24" viewBox="0 0 24 24" fill="none" xmlns="http://www.w3.org/2000/svg">
<rect width="24" height="24" fill="white"/>
<path d="M6.99914 19.4795L12.0008 16.4626L17.0024 19.5192L15.6925 13.803L20.0987 9.99219L14.3031 9.47615L12.0008 4.07754L9.69845 9.43645L3.90288 9.9525L8.3091 13.803L6.99914 19.4795ZM4.5777 22.8107L6.54661 14.3746L0 8.70288L8.62349 7.9566L12.0008 0L15.3781 7.95501L24 8.70129L17.455 14.373L19.4239 22.8091L12.0008 18.3315L4.5777 22.8107Z" fill="black"/>
<path d="M6.99914 19.4795L12.0008 16.4626L17.0024 19.5192L15.6925 13.803L20.0987 9.99219L14.3031 9.47615L12.0008 4.07754L9.69845 9.43645L3.90288 9.9525L8.3091 13.803L6.99914 19.4795Z" fill="#F4D06F"/>
</svg>
