<svg width="115" height="127" viewBox="0 0 115 127" fill="none" xmlns="http://www.w3.org/2000/svg">
<path d="M112.5 86.618V39.882C112.5 36.4189 111.209 33.0801 108.88 30.5176C107.965 29.5113 106.907 28.6445 105.741 27.9447L66.3002 4.28011C63.8135 2.78813 60.9682 2 58.0683 2H56.8084C53.9864 2 51.2146 2.74636 48.7742 4.16338L8.70814 27.4275C6.92646 28.4621 5.40575 29.8914 4.26292 31.6056C2.78738 33.8189 2 36.4195 2 39.0795V87.8756C2 90.5561 2.84924 93.1677 4.42583 95.3355C5.46385 96.7628 6.7883 97.9577 8.3145 98.8439L48.7742 122.337C51.2146 123.754 53.9864 124.5 56.8084 124.5H58.0683C60.9682 124.5 63.8135 123.712 66.3002 122.22L105.741 98.5553C106.907 97.8555 107.965 96.9887 108.88 95.9824C111.209 93.4199 112.5 90.0811 112.5 86.618Z" fill="#F7DF1E" stroke="#F7DF1E" stroke-width="4"/>
<path d="M52.3075 81.3087V60.6875H58.0062V81.3087C58.0062 84.7554 57.1837 87.6342 55.5388 89.945C53.9329 92.2558 50.7408 93.4113 45.9625 93.4113C44.3175 93.4113 42.7313 93.2154 41.2037 92.8238L40.44 92.53L41.3213 87.5362L42.32 87.7713C43.2208 88.0063 44.2196 88.1238 45.3162 88.1238C48.2146 88.1238 50.0946 87.4579 50.9562 86.1263C51.8571 84.7554 52.3075 83.1496 52.3075 81.3087ZM80.7462 66.2688C79.4928 65.9554 78.1808 65.7987 76.8099 65.7987C74.8124 65.7987 73.2458 66.1512 72.1099 66.8563C70.9741 67.5613 70.4062 68.5208 70.4062 69.735C70.4062 70.7533 70.9153 71.5563 71.9337 72.1438C72.9912 72.7313 74.6362 73.3775 76.8687 74.0825C79.1403 74.7875 81.0008 75.4729 82.4499 76.1388C83.9383 76.8046 85.2112 77.7838 86.2687 79.0763C87.3262 80.3688 87.8549 82.0138 87.8549 84.0113C87.8549 85.6562 87.4045 87.2033 86.5037 88.6525C85.6028 90.0625 84.1341 91.2375 82.0974 92.1775C80.0999 93.0783 77.5345 93.5287 74.4012 93.5287C72.5603 93.5287 70.8762 93.3525 69.3487 93C67.8212 92.6083 66.0391 92.0208 64.0024 91.2375L63.2387 90.885L65.1774 85.6562L66.0587 86.0088C69.6228 87.3404 72.5603 88.0063 74.8712 88.0063C76.9862 88.0063 78.6899 87.6538 79.9824 86.9488C81.2749 86.2046 81.9212 85.2254 81.9212 84.0113C81.9603 82.8363 81.4512 81.955 80.3937 81.3675C79.3362 80.7408 77.6324 80.075 75.2824 79.37C73.0499 78.665 71.2091 77.9796 69.7599 77.3138C68.3108 76.6479 67.077 75.6883 66.0587 74.435C65.0403 73.1425 64.5312 71.4975 64.5312 69.5C64.5312 67.7375 65.0208 66.1708 65.9999 64.8C66.9791 63.4292 68.3891 62.3521 70.2299 61.5688C72.0708 60.7854 74.2053 60.3938 76.6337 60.3938C78.7095 60.3938 80.472 60.57 81.9212 60.9225C83.3703 61.2358 84.7803 61.6275 86.1512 62.0975L86.7974 62.3325L84.9174 67.5613C83.4291 66.9738 82.0387 66.5429 80.7462 66.2688Z" fill="#323330"/>
</svg>
